<svg width="84" height="34" viewBox="0 0 84 34" fill="none" xmlns="http://www.w3.org/2000/svg">
<rect x="0.5" y="0.5" width="83" height="33" rx="16.5" stroke="black" stroke-opacity="0.37"/>
<path d="M33.6425 11.262V23.014H34.6825V11.262H33.6425ZM31.6535 15.968V16.865H33.9155V15.968H31.6535ZM30.9775 11.522V22.416H31.9915V11.522H30.9775ZM25.1275 19.218V20.115H25.8945C27.6625 20.115 28.8455 20.063 30.2495 19.764L30.1455 18.867C28.7805 19.153 27.6105 19.218 25.8945 19.218H25.1275ZM25.1275 12.692V19.621H26.1935V13.576H29.4955V12.692H25.1275ZM45.2245 11.262V23.014H46.3035V11.262H45.2245ZM41.7795 12.523V12.705C41.7795 15.825 40.2065 18.321 36.8135 19.959L37.3855 20.83C41.3115 18.906 42.8455 15.929 42.8455 12.523H41.7795ZM37.3465 12.523V13.407H42.2475V12.523H37.3465ZM53.3875 17.138V19.192H54.4665V17.138H53.3875ZM48.6165 16.761V17.632H59.2375V16.761H48.6165ZM53.9205 18.867C51.3985 18.867 49.8905 19.608 49.8905 20.934C49.8905 22.247 51.3985 22.988 53.9205 22.988C56.4425 22.988 57.9505 22.247 57.9505 20.934C57.9505 19.608 56.4425 18.867 53.9205 18.867ZM53.9205 19.699C55.7665 19.699 56.8585 20.141 56.8585 20.934C56.8585 21.714 55.7665 22.156 53.9205 22.156C52.0875 22.156 50.9825 21.714 50.9825 20.934C50.9825 20.141 52.0875 19.699 53.9205 19.699ZM53.2315 12.224V12.575C53.2315 13.914 51.3205 14.967 49.2145 15.188L49.6045 16.046C52.0355 15.747 54.1935 14.473 54.1935 12.575V12.224H53.2315ZM53.6865 12.224V12.575C53.6865 14.473 55.8315 15.747 58.2625 16.046L58.6525 15.188C56.5465 14.967 54.6355 13.914 54.6355 12.575V12.224H53.6865ZM49.5915 11.795V12.666H58.2885V11.795H49.5915Z" fill="#1C1B1F" fill-opacity="0.4"/>
</svg>
